<svg xmlns="http://www.w3.org/2000/svg" viewBox="0 0 32 32" fill="none">
  <circle cx="16" cy="16" r="16" fill="#2775CA"/>
  <path d="M16 28c6.627 0 12-5.373 12-12S22.627 4 16 4 4 9.373 4 16s5.373 12 12 12z" fill="#2775CA"/>
  <path d="M18.5 18.5c0-1.5-1-2-3-2.3s-2.5-.7-2.5-1.5.7-1.3 1.8-1.3 1.8.5 2 1.3h1.5c-.2-1.3-1.2-2.3-2.5-2.5V11h-1.5v1.2c-1.5.2-2.5 1.3-2.5 2.7 0 1.7 1 2.2 3 2.5s2.5.8 2.5 1.6-.8 1.3-2 1.3-2-.6-2.2-1.5h-1.5c.2 1.5 1.3 2.5 2.8 2.7V23h1.5v-1.2c1.5-.3 2.6-1.3 2.6-2.8z" fill="#fff"/>
</svg>
