<svg xmlns="http://www.w3.org/2000/svg" viewBox="0 0 32 32" fill="none">
  <circle cx="16" cy="16" r="16" fill="#000"/>
  <path d="M9.5 20.2a.6.6 0 0 1 .4-.2h14.4a.3.3 0 0 1 .2.5l-2.7 2.7a.6.6 0 0 1-.4.2H7a.3.3 0 0 1-.2-.5l2.7-2.7z" fill="url(#a)"/>
  <path d="M9.5 8.8a.6.6 0 0 1 .4-.2h14.4a.3.3 0 0 1 .2.5l-2.7 2.7a.6.6 0 0 1-.4.2H7a.3.3 0 0 1-.2-.5l2.7-2.7z" fill="url(#b)"/>
  <path d="M22.5 14.4a.6.6 0 0 0-.4-.2H7.7a.3.3 0 0 0-.2.5l2.7 2.7a.6.6 0 0 0 .4.2h14.4a.3.3 0 0 0 .2-.5l-2.7-2.7z" fill="url(#c)"/>
  <defs>
    <linearGradient id="a" x1="23.3" y1="6" x2="9.5" y2="25.6" gradientUnits="userSpaceOnUse">
      <stop stop-color="#00FFA3"/><stop offset="1" stop-color="#DC1FFF"/>
    </linearGradient>
    <linearGradient id="b" x1="23.3" y1="6" x2="9.5" y2="25.6" gradientUnits="userSpaceOnUse">
      <stop stop-color="#00FFA3"/><stop offset="1" stop-color="#DC1FFF"/>
    </linearGradient>
    <linearGradient id="c" x1="23.3" y1="6" x2="9.5" y2="25.6" gradientUnits="userSpaceOnUse">
      <stop stop-color="#00FFA3"/><stop offset="1" stop-color="#DC1FFF"/>
    </linearGradient>
  </defs>
</svg>
